<?xml version="1.0" encoding="UTF-8"?>
<svg width="789px" height="534px" viewBox="0 0 789 534" version="1.1" xmlns="http://www.w3.org/2000/svg" xmlns:xlink="http://www.w3.org/1999/xlink">
    <title>Artboard</title>
    <g id="Artboard" stroke="none" stroke-width="1" fill="none" fill-rule="evenodd">
        <path d="M104.5,256 L153.5,256 C157.251288,256 160.717622,258.001288 162.593267,261.25 C164.468911,264.498711 164.468911,268.501289 162.593267,271.75 C160.717622,274.998712 157.251288,277 153.5,277 L104.5,277 C98.7010101,277 94,272.29899 94,266.5 C94,260.70101 98.7010101,256 104.5,256 L104.5,256 Z M154.5,256 L203.5,256 C207.251288,256 210.717622,258.001288 212.593267,261.25 C214.468911,264.498711 214.468911,268.501289 212.593267,271.75 C210.717622,274.998712 207.251288,277 203.5,277 L154.5,277 C148.70101,277 144,272.29899 144,266.5 C144,260.70101 148.70101,256 154.5,256 L154.5,256 Z M47.75,174 C52.8586339,174 57,178.477153 57,184 C57,189.522847 52.8586339,194 47.75,194 L29.25,194 C24.1413661,194 20,189.522847 20,184 C20,178.477153 24.1413661,174 29.25,174 L47.75,174 L47.75,174 Z M284.75,174 C289.858634,174 294,178.477153 294,184 C294,189.522847 289.858634,194 284.75,194 L266.25,194 C261.141366,194 257,189.522847 257,184 C257,178.477153 261.141366,174 266.25,174 L284.75,174 L284.75,174 Z M79,82.0025252 L92.2548341,96.5 C95.9150553,100.503367 95.9150553,106.994108 92.254834,110.997475 C88.5946127,115.000842 82.6602214,115.000842 79,110.997475 L65.7451659,96.5 C62.0849447,92.4966329 62.0849447,86.0058924 65.745166,82.0025253 C69.4053873,77.9991583 75.3397786,77.9991582 79,82.0025252 L79,82.0025252 Z M254.254638,79.0027393 C256.012452,80.9251167 257,83.5325591 257,86.2513753 C257,88.9701914 256.012452,91.5776338 254.254638,93.5000112 L240.99999,107.997283 C238.632275,110.586971 235.181255,111.59836 231.946896,110.650468 C228.712538,109.702576 226.186216,106.939412 225.319572,103.401832 C224.452928,99.8642522 225.377626,96.0896994 227.745341,93.5000112 L240.99999,79.0027393 C242.757592,77.0801301 245.141539,76 247.627314,76 C250.113089,76 252.497036,77.0801301 254.254638,79.0027393 L254.254638,79.0027393 Z M153.5,38 C158.190193,38 162,42.5847884 162,48.2500032 L162,68.7500011 C162,74.4109192 158.194421,79 153.5,79 C148.805582,79 145,74.4109192 145,68.7500011 L145,48.2500032 C144.997934,45.5307701 145.892802,42.9221924 147.48731,40.9994034 C149.081818,39.0766145 151.245028,37.9975085 153.5,38 Z" id="Shape" fill="#000000" fill-rule="nonzero"></path>
        <path d="M170,166 L154,166 L154,150 L170,150 L170,166 Z M170,114 L154,114 L154,130 L170,130 L170,114 Z M188,150 L172,150 L172,166 L188,166 L188,150 L188,150 Z M152,132 L136,132 L136,148 L152,148 L152,132 Z M170,132 L154,132 L154,148 L170,148 L170,132 Z M243.550547,157.04204 C239.815802,154.296244 231.205138,153.305493 224.591526,154.664238 C223.735647,147.870516 220.260259,141.954316 213.93194,136.632567 L210.300937,134 L207.888914,137.963004 C203.116739,145.832399 201.819952,158.797085 206.929292,167.345852 C204.672883,168.676289 200.237872,170.487948 194.376397,170.37472 L81.6337627,170.37472 C79.3773539,184.754765 83.1380353,203.4375 93.0454855,216.26065 C102.667643,228.6875 117.087911,235 135.943189,235 C176.766033,235 206.981163,214.477298 221.116138,177.196749 C226.666385,177.309978 238.648694,177.225056 244.795463,164.401906 C245.184499,163.694226 246.507221,160.665359 247,159.561379 L243.550547,157.04204 Z M115.975794,150 L100,150 L100,166 L116,166 L116,150 L115.975794,150 Z M134,150 L118,150 L118,166 L134,166 L134,150 Z M152,150 L136,150 L136,166 L152,166 L152,150 Z M134,132 L118,132 L118,148 L134,148 L134,132 Z" id="Shape" fill="#000000" fill-rule="nonzero"></path>
    </g>
</svg>